<svg width="15" height="15" viewBox="0 0 15 15" fill="none" xmlns="http://www.w3.org/2000/svg">
<path fill-rule="evenodd" clip-rule="evenodd" d="M9.74988 3.75008H11.2499V7.50017C11.2499 9.35341 11.392 9.75022 11.9999 9.75022C12.9782 9.75022 13.5 9.28758 13.5 7.50017C13.5 3.53307 11.5102 1.50003 7.49992 1.50003C4.90183 1.50036 2.59912 3.17277 1.79509 5.64332C0.991065 8.11387 1.86842 10.8212 3.96867 12.3506C6.06893 13.88 8.91489 13.8839 11.0193 12.3603L11.899 13.5753C9.26844 15.4798 5.71099 15.4749 3.08567 13.5632C0.460353 11.6515 -0.636338 8.26729 0.368694 5.17911C1.37373 2.09092 4.25212 0.000408198 7.49983 0C12.346 0 15 2.71176 15 7.50017C15 10.1589 13.7691 11.2503 11.9999 11.2503C10.992 11.2503 10.4152 10.9253 10.0985 10.2039C9.42447 10.8519 8.50867 11.2503 7.49981 11.2503C5.4287 11.2503 3.74973 9.57128 3.74973 7.50017C3.74973 5.42905 5.4287 3.75008 7.49981 3.75008C8.34404 3.75008 9.12312 4.02905 9.74988 4.49984V3.75008ZM9.74988 7.50021C9.74988 8.74288 8.7425 9.75026 7.49983 9.75026C6.25716 9.75026 5.24978 8.74288 5.24978 7.50021C5.24978 6.25754 6.25716 5.25016 7.49983 5.25016C8.7425 5.25016 9.74988 6.25754 9.74988 7.50021Z" fill="white"/>
</svg>
