<svg xmlns="http://www.w3.org/2000/svg" xmlns:xlink="http://www.w3.org/1999/xlink"><symbol id="arrows-button"><circle class="home__portfolio-svg-circle" cx="25" cy="25" r="25"/><path class="home__portfolio-svg-arrow" fill-rule="evenodd" clip-rule="evenodd" d="M19.826 14.848l-2.099 2.1 7.856 7.855-7.856 7.856 2.1 2.1 9.954-9.956-9.955-9.955zm7.421 0l-2.099 2.1 7.856 7.855-7.856 7.856 2.1 2.1 9.954-9.956-9.954-9.955z"/></symbol><symbol id="email" viewBox="0 0 511.974 511.974"><path d="M511.872 195.725a8.065 8.065 0 00-.35-1.732 8.533 8.533 0 00-.486-1.468 7.655 7.655 0 00-.853-1.306 8.046 8.046 0 00-1.135-1.323c-.137-.119-.196-.282-.341-.401l-82.065-63.735V59.704c0-14.138-11.462-25.6-25.6-25.6h-92.476L271.539 5.355a25.302 25.302 0 00-31.121 0l-37.035 28.749h-92.476c-14.138 0-25.6 11.461-25.6 25.6v66.057L3.268 189.496c-.145.12-.205.282-.341.401a8.005 8.005 0 00-1.135 1.323 7.616 7.616 0 00-.853 1.306 8.42 8.42 0 00-.486 1.468 8.087 8.087 0 00-.35 1.707c0 .179-.102.333-.102.512V486.37a25.313 25.313 0 005.009 15.061c.051.077.06.171.119.239.06.068.188.145.273.239a25.475 25.475 0 0020.173 10.061h460.8a25.482 25.482 0 0020.241-10.103c.068-.085.171-.111.23-.196.06-.085.068-.162.12-.239a25.317 25.317 0 005.009-15.061V196.237c-.001-.179-.094-.333-.103-.512zM250.854 18.82a8.182 8.182 0 0110.18 0l19.686 15.283h-49.493l19.627-15.283zM27.725 494.904l223.13-173.321a8.193 8.193 0 0110.18 0l223.189 173.321H27.725zM494.908 481.6L271.539 308.117a25.319 25.319 0 00-31.121 0L17.041 481.6V209.233L156.877 317.82a8.536 8.536 0 0011.977-1.515 8.536 8.536 0 00-1.515-11.977L25.276 194.018l60.032-46.652v65.937a8.533 8.533 0 0017.066 0v-153.6a8.533 8.533 0 018.533-8.533H401.04a8.533 8.533 0 018.533 8.533v153.6a8.533 8.533 0 0017.066 0v-65.937l60.032 46.652-142.31 110.507a8.533 8.533 0 1010.462 13.482l140.083-108.774V481.6z"/><path d="M358.374 204.77v-34.133c0-56.554-45.846-102.4-102.4-102.4-56.554 0-102.4 45.846-102.4 102.4s45.846 102.4 102.4 102.4c4.713 0 8.533-3.82 8.533-8.533s-3.82-8.533-8.533-8.533c-47.128 0-85.333-38.205-85.333-85.333s38.205-85.333 85.333-85.333 85.333 38.205 85.333 85.333v34.133c0 9.426-7.641 17.067-17.067 17.067s-17.067-7.641-17.067-17.067v-34.133c0-4.713-3.82-8.533-8.533-8.533s-8.533 3.82-8.533 8.533c0 18.851-15.282 34.133-34.133 34.133-18.851 0-34.133-15.282-34.133-34.133s15.282-34.133 34.133-34.133c4.713 0 8.533-3.82 8.533-8.533s-3.82-8.533-8.533-8.533c-22.915-.051-43.074 15.13-49.354 37.168-6.28 22.038 2.847 45.565 22.347 57.601 19.5 12.036 44.622 9.65 61.507-5.843 1.858 18.046 17.543 31.464 35.659 30.505 18.117-.96 32.298-15.958 32.241-34.1z"/></symbol><symbol id="location"><path fill-rule="evenodd" clip-rule="evenodd" d="M7.5 18.606l.548-.478C12.658 14.103 15 10.589 15 7.5 15 3.126 11.586 0 7.5 0S0 3.126 0 7.5c0 3.089 2.343 6.603 6.952 10.628l.548.478zm0-2.22C3.589 12.861 1.667 9.874 1.667 7.5c0-3.42 2.636-5.833 5.833-5.833S13.333 4.08 13.333 7.5c0 2.374-1.922 5.361-5.833 8.886zm0-13.053a4.167 4.167 0 110 8.334 4.167 4.167 0 010-8.334zM5 7.5a2.5 2.5 0 115 0 2.5 2.5 0 01-5 0z"/></symbol><symbol id="mail"><path fill-rule="evenodd" clip-rule="evenodd" d="M9.75 3.75h1.5V7.5c0 1.853.142 2.25.75 2.25.978 0 1.5-.462 1.5-2.25 0-3.967-1.99-6-6-6a6 6 0 103.52 10.86l.879 1.215A7.5 7.5 0 117.499 0C12.347 0 15 2.712 15 7.5c0 2.659-1.23 3.75-3 3.75-1.008 0-1.585-.325-1.902-1.046A3.75 3.75 0 119.75 4.5v-.75zm0 3.75a2.25 2.25 0 11-4.5 0 2.25 2.25 0 014.5 0z"/></symbol><symbol id="telegram" viewBox="0 -39 512 512"><path d="M504.094 11.86C497.84 4.21 488.473 0 477.714 0c-5.847 0-12.042 1.23-18.41 3.664L25.907 169.105c-23 8.778-26.097 21.95-25.898 29.02s4.039 20.047 27.5 27.512c.14.043.281.086.422.125l89.898 25.726 48.617 139.024c6.63 18.953 21.508 30.726 38.836 30.726 10.926 0 21.672-4.578 31.078-13.234l55.606-51.2 80.652 64.942c.008.008.02.012.028.02l.765.617.215.168c8.965 6.953 18.75 10.625 28.309 10.629h.003c18.676 0 33.547-13.825 37.88-35.215l71.011-350.64c2.852-14.075.461-26.669-6.734-35.466zM147.902 246.601l173.442-88.606L213.348 272.75a14.975 14.975 0 00-3.641 6.684l-20.824 84.351zm68.133 139.332c-.719.66-1.441 1.25-2.164 1.793l19.32-78.25 35.145 28.3zm265.39-344.567l-71.01 350.645c-.685 3.355-2.868 11.164-8.481 11.164-2.774 0-6.258-1.512-9.825-4.258l-91.39-73.586a.173.173 0 00-.043-.031l-54.38-43.79 156.177-165.949a15 15 0 00-17.746-23.636L127.859 223.152l-91.12-26.07 433.265-165.39c3.66-1.399 6.215-1.692 7.71-1.692.919 0 2.552.11 3.157.855.797.973 1.813 4.29.555 10.512zm0 0"/></symbol></svg>